<svg width="64" height="64" viewBox="0 0 64 64" fill="none" xmlns="http://www.w3.org/2000/svg">
  <rect width="64" height="64" rx="12" fill="#FF0000"/>
  <path d="M50.8 24.4C50.2 22.2 48.6 20.6 46.4 20C43.2 19 32 19 32 19C32 19 20.8 19 17.6 20C15.4 20.6 13.8 22.2 13.2 24.4C12 27.6 12 32 12 32C12 32 12 36.4 13.2 39.6C13.8 41.8 15.4 43.4 17.6 44C20.8 45 32 45 32 45C32 45 43.2 45 46.4 44C48.6 43.4 50.2 41.8 50.8 39.6C52 36.4 52 32 52 32C52 32 52 27.6 50.8 24.4ZM28.8 37.2V26.8L38.4 32L28.8 37.2Z" fill="white"/>
</svg> 